<svg width="50" height="50" viewBox="0 0 50 50" fill="none" xmlns="http://www.w3.org/2000/svg">
<path d="M22.9167 31.25H27.0834V35.4167H22.9167V31.25ZM22.9167 14.5833H27.0834V27.0833H22.9167V14.5833ZM24.9792 4.16666C13.4792 4.16666 4.16675 13.5 4.16675 25C4.16675 36.5 13.4792 45.8333 24.9792 45.8333C36.5001 45.8333 45.8334 36.5 45.8334 25C45.8334 13.5 36.5001 4.16666 24.9792 4.16666ZM25.0001 41.6667C15.7917 41.6667 8.33341 34.2083 8.33341 25C8.33341 15.7917 15.7917 8.33332 25.0001 8.33332C34.2084 8.33332 41.6667 15.7917 41.6667 25C41.6667 34.2083 34.2084 41.6667 25.0001 41.6667Z" fill="#FB4673"/>
</svg>
