<svg width="53" height="56" viewBox="0 0 53 56" fill="none" xmlns="http://www.w3.org/2000/svg">
<path d="M19.25 48.4166C6.70833 52.5 6.70833 41.125 1.75 39.6666M36.75 54.25V44.0416C36.75 41.125 37.0417 39.9583 35.2917 38.2083C43.4583 37.3333 51.3333 34.125 51.3333 20.7083C51.3298 17.2228 49.9699 13.8755 47.5417 11.375C48.6805 8.34738 48.5757 4.99223 47.25 2.04165C47.25 2.04165 44.0417 1.16665 37.0417 5.83331C31.1128 4.28919 24.8872 4.28919 18.9583 5.83331C11.9583 1.16665 8.75 2.04165 8.75 2.04165C7.42432 4.99223 7.31947 8.34738 8.45833 11.375C6.03007 13.8755 4.67022 17.2228 4.66667 20.7083C4.66667 34.125 12.5417 37.3333 20.7083 38.2083C18.9583 39.9583 18.9583 41.7083 19.25 44.0416V54.25" stroke="#6B6A6E" stroke-width="2.75" stroke-linecap="round" stroke-linejoin="round"/>
</svg>
