<svg width="200" height="200" viewBox="0 0 200 200" fill="none" xmlns="http://www.w3.org/2000/svg">
<path d="M150.136 80.9681C149.999 87.9377 148.447 94.5132 145.699 100.51C160.186 102.924 160.304 114.722 160.304 120.101C160.304 125.088 160.304 140.203 140.222 140.203H120.101C107.007 140.203 95.2883 146.524 87.9473 156.3C83.0796 152.609 79.8987 146.759 79.8987 140.203V120.101C79.8987 116.126 80.6047 112.995 81.7046 110.414C81.1161 110.306 80.5275 110.051 79.8987 110.051H60.8186C60.1722 113.162 59.8168 116.489 59.8168 120.101V140.203C59.8168 162.406 77.7986 180.405 100 180.405C100 169.295 108.991 160.304 120.101 160.304H140.222C160.304 160.304 180.405 148.997 180.405 120.101C180.405 95.515 166.429 84.12 150.136 80.9681Z" fill="#FB4673"/>
<path d="M100 39.6962C107.499 39.6962 120.101 42.3062 120.101 59.7975V79.8988C120.101 86.4759 116.92 92.3149 112.053 95.9862C104.712 86.2299 93.0112 79.8988 79.8987 79.8988H59.8168C39.6962 79.8988 39.6962 64.7746 39.6962 59.7975C39.6962 53.7912 39.6962 39.6962 59.8168 39.6962H100ZM100 19.595H59.8168C39.6962 19.595 19.5949 30.2744 19.5949 59.7975C19.5949 88.6935 39.6962 100 59.8168 100H79.8987C91.0091 100 100 109.012 100 120.101C122.203 120.101 140.222 102.102 140.222 79.8988V59.7975C140.222 32.0497 120.101 19.595 100 19.595Z" fill="#00E7FF"/>
</svg>
